<svg xmlns="http://www.w3.org/2000/svg" version="1.1" xmlns:xlink="http://www.w3.org/1999/xlink" xmlns:svgjs="http://svgjs.dev/svgjs" width="1000" height="623" viewBox="0 0 1000 623"><g transform="matrix(1,0,0,1,-0.6060606060606233,0.2522267206477409)"><svg viewBox="0 0 396 247" data-background-color="#ffffff" preserveAspectRatio="xMidYMid meet" height="623" width="1000" xmlns="http://www.w3.org/2000/svg" xmlns:xlink="http://www.w3.org/1999/xlink"><g id="tight-bounds" transform="matrix(1,0,0,1,0.2400000000000091,-0.09999999999999432)"><svg viewBox="0 0 395.52 247.2" height="247.2" width="395.52"><g><svg></svg></g><g><svg viewBox="0 0 395.52 247.2" height="247.2" width="395.52"><g transform="matrix(1,0,0,1,126.18120481927711,37.08)"><svg viewBox="0 0 143.15759036144576 173.04" height="173.04" width="143.15759036144576"><g><svg viewBox="0 0 143.15759036144576 173.04" height="173.04" width="143.15759036144576"><g><svg viewBox="0 0 143.15759036144576 173.04" height="173.04" width="143.15759036144576"><g><svg viewBox="0 0 143.15759036144576 173.04" height="173.04" width="143.15759036144576"><g id="textblocktransform"><svg viewBox="0 0 143.15759036144576 173.04" height="173.04" width="143.15759036144576" id="textblock"><g><svg viewBox="0 0 143.15759036144576 173.04" height="173.04" width="143.15759036144576"><g transform="matrix(1,0,0,1,0,0)"><svg width="143.15759036144576" viewBox="2 -24.399999618530273 20.600000381469727 24.899999618530273" height="173.04" data-palette-color="#233565"><path d="M8.6 0.5Q5.8 0.5 3.9-1.23 2-2.95 2-6.15L2-6.15Q2-8.45 3.55-10.08 5.1-11.7 6.95-12.3L6.95-12.3Q7.9-12.6 9.18-12.88 10.45-13.15 10.9-13.25L10.9-13.25Q13.4-13.75 14.65-14.18 15.9-14.6 16.15-15.35L16.15-15.35Q16.15-18.95 14.78-21.35 13.4-23.75 10.2-23.75L10.2-23.75Q8.2-23.75 7.23-22.33 6.25-20.9 6.25-18.5L6.25-18.5Q6.25-17.85 6.5-17.57 6.75-17.3 7.65-17.3L7.65-17.3Q8.2-17.3 8.6-17.55 9-17.8 9-18.15L9-18.15 9.45-18.15 9.45-16.8 2.9-16.8Q2.9-18.6 3.95-20.38 5-22.15 6.85-23.28 8.7-24.4 10.95-24.4L10.95-24.4Q13.95-24.4 15.78-23.03 17.6-21.65 18.38-19.73 19.15-17.8 19.15-15.9L19.15-15.9 19.15-5.05Q19.15-1.3 20.75-1.3L20.75-1.3Q21.25-1.3 21.68-1.98 22.1-2.65 22.1-3.35L22.1-3.35 22.6-3.35Q22.6-1.5 21.48-0.5 20.35 0.5 18.9 0.5L18.9 0.5Q17.2 0.5 16.68-1 16.15-2.5 16.15-5.2L16.15-5.2 16.15-7.5Q16.15-6.8 15.48-4.85 14.8-2.9 13.1-1.2 11.4 0.5 8.6 0.5L8.6 0.5ZM9.75-0.9Q11.45-0.9 12.9-2.25 14.35-3.6 15.2-5.45 16.05-7.3 16.05-8.55L16.05-8.55 16.05-14.25Q16.05-14.1 15.55-13.95 15.05-13.8 14.3-13.65L14.3-13.65Q11.05-12.8 9.55-12.25L9.55-12.25Q7.2-11.4 6.1-9.88 5-8.35 5-6.45L5-6.45Q5-4.25 6.23-2.58 7.45-0.9 9.75-0.9L9.75-0.9Z" opacity="1" transform="matrix(1,0,0,1,0,0)" fill="#233565" class="undefined-text-0" data-fill-palette-color="primary" id="text-0"></path></svg></g></svg></g></svg></g></svg></g></svg></g></svg></g></svg></g><g mask="url(#6cefe787-720e-4995-a433-7e9cba8aba75)"><g transform="matrix(2.522997019083455, 0, 0, 2.522997019083455, 91.5847159839364, 1.0000000000000142)"><svg xmlns="http://www.w3.org/2000/svg" xmlns:xlink="http://www.w3.org/1999/xlink" version="1.1" x="0" y="0" viewBox="8 1.034000039100647 84.16600036621094 97.18600463867188" enable-background="new 0 0 100 100" xml:space="preserve" height="97.18600463867188" width="84.16600036621094" class="icon-none" data-fill-palette-color="accent" id="none"><g fill="#8bd8bc" data-fill-palette-color="accent"><g fill="#8bd8bc" data-fill-palette-color="accent"><path d="M50.083 98.22L8 73.923V25.33L50.083 1.034 92.166 25.33v48.593L50.083 98.22 50.083 98.22zM12.271 71.458l37.812 21.831 37.811-21.831V27.796L50.083 5.965 12.271 27.796V71.458L12.271 71.458z" fill="#8bd8bc" data-fill-palette-color="accent"></path></g><g fill="#8bd8bc" data-fill-palette-color="accent"><g fill="#8bd8bc" data-fill-palette-color="accent"><g fill="#8bd8bc" data-fill-palette-color="accent"><path d="M28.913 30.979h3.113l7.388 20.354h-3.021l-2.125-6.097h-7.986l-2.207 6.097h-2.827L28.913 30.979zM33.485 42.99l-3.134-8.991-3.256 8.991H33.485z" fill="#8bd8bc" data-fill-palette-color="accent"></path><path d="M40.425 52.041h-4.536l-2.125-6.097H26.78l-2.208 6.097h-4.349l8.198-21.772h4.102L40.425 52.041 40.425 52.041zM36.896 50.622H38.4l-6.872-18.935h-2.125l-7.131 18.935h1.304l2.208-6.096h8.987L36.896 50.622 36.896 50.622zM34.483 43.7h-8.4l4.28-11.82L34.483 43.7 34.483 43.7zM28.106 42.281h4.38l-2.148-6.164L28.106 42.281 28.106 42.281z" fill="#8bd8bc" data-fill-palette-color="accent"></path></g></g><g fill="#8bd8bc" data-fill-palette-color="accent"><g fill="#8bd8bc" data-fill-palette-color="accent"><polygon points="80.213,35.679 46.364,35.679 46.364,31.408 80.213,31.408 80.213,35.679     " fill="#8bd8bc" data-fill-palette-color="accent"></polygon></g><g fill="#8bd8bc" data-fill-palette-color="accent"><polygon points="80.213,47.977 46.364,47.977 46.364,43.707 80.213,43.707 80.213,47.977     " fill="#8bd8bc" data-fill-palette-color="accent"></polygon></g><g fill="#8bd8bc" data-fill-palette-color="accent"><polygon points="80.213,60.275 19.953,60.275 19.953,56.006 80.213,56.006 80.213,60.275     " fill="#8bd8bc" data-fill-palette-color="accent"></polygon></g><g fill="#8bd8bc" data-fill-palette-color="accent"><polygon points="70.682,72.574 29.484,72.574 29.484,68.304 70.682,68.304 70.682,72.574     " fill="#8bd8bc" data-fill-palette-color="accent"></polygon></g></g></g></g></svg></g></g></svg></g><defs><mask id="6cefe787-720e-4995-a433-7e9cba8aba75"><rect width="640" height="400" fill="white"></rect><rect width="157.47334939759034" height="254.74118208" fill="black" x="241.26332530120482" y="72.62940896" id="transform-me" transform="matrix(1,0,0,1,-122.24000000000001,-76.4)"></rect></mask></defs></svg><rect width="395.52" height="247.2" fill="none" stroke="none" visibility="hidden"></rect></g></svg></g></svg>